<?xml version="1.0" standalone="no"?>
<!DOCTYPE svg PUBLIC "-//W3C//DTD SVG 20010904//EN"
 "http://www.w3.org/TR/2001/REC-SVG-20010904/DTD/svg10.dtd">
<svg version="1.0" xmlns="http://www.w3.org/2000/svg"
 width="138.000000pt" height="104.000000pt" viewBox="0 0 138.000000 104.000000"
 preserveAspectRatio="xMidYMid meet">

<g transform="translate(0.000000,104.000000) scale(0.100000,-0.100000)"
fill="#000000" stroke="none">
<path d="M613 964 c-3 -8 -1 -20 5 -26 7 -7 10 -2 9 16 -2 30 -5 32 -14 10z"/>
<path d="M684 964 c3 -9 6 -20 6 -25 0 -5 4 -9 9 -9 4 0 6 11 3 25 -2 14 -9
25 -14 25 -6 0 -7 -7 -4 -16z"/>
<path d="M720 973 c1 -14 30 -48 30 -34 0 7 -7 19 -15 27 -8 9 -15 12 -15 7z"/>
<path d="M775 950 c0 -16 3 -30 8 -30 4 0 7 9 7 20 0 11 0 23 1 27 0 4 -3 9
-8 10 -4 2 -8 -10 -8 -27z"/>
<path d="M516 952 c-3 -5 -2 -18 1 -30 6 -23 27 -29 38 -12 3 6 -1 7 -10 4
-11 -5 -14 -2 -8 12 4 12 3 15 -5 10 -7 -4 -12 -3 -12 3 0 5 6 12 13 14 9 4 9
6 0 6 -6 1 -14 -3 -17 -7z"/>
<path d="M820 945 c-7 -9 -10 -18 -7 -21 3 -3 10 4 17 15 13 25 8 27 -10 6z"/>
<path d="M854 952 c4 -6 1 -22 -5 -34 -11 -21 -11 -22 4 -9 20 16 22 37 5 47
-7 4 -8 3 -4 -4z"/>
<path d="M464 924 c-10 -8 -14 -13 -7 -9 7 3 17 -4 23 -16 7 -11 14 -18 17
-15 3 3 0 13 -7 22 -12 13 -11 17 1 25 8 5 9 9 3 9 -5 0 -19 -7 -30 -16z"/>
<path d="M884 924 c3 -9 6 -22 6 -30 0 -9 4 -13 9 -10 11 7 2 56 -11 56 -6 0
-7 -7 -4 -16z"/>
<path d="M339 893 l-24 -28 28 24 c15 14 27 26 27 28 0 8 -8 1 -31 -24z"/>
<path d="M431 905 c0 -13 28 -50 33 -44 3 2 -4 15 -14 29 -11 14 -20 21 -19
15z"/>
<path d="M1040 885 c13 -14 26 -25 28 -25 3 0 -5 11 -18 25 -13 14 -26 25 -28
25 -3 0 5 -11 18 -25z"/>
<path d="M398 868 c6 -6 18 -8 28 -6 14 3 12 5 -9 10 -19 3 -25 2 -19 -4z"/>
<path d="M976 861 c-10 -11 -15 -25 -11 -30 10 -17 23 -13 36 10 16 30 -3 45
-25 20z m18 -15 c-6 -15 -24 -23 -24 -11 0 8 24 34 28 30 1 -1 0 -10 -4 -19z"/>
<path d="M355 849 c-4 -5 0 -18 9 -28 9 -10 13 -22 9 -26 -5 -5 4 2 19 15 15
14 28 30 28 35 0 6 -4 4 -9 -3 -6 -10 -10 -10 -21 3 -15 18 -26 19 -35 4z m29
-15 c5 -14 4 -15 -9 -4 -17 14 -19 20 -6 20 5 0 12 -7 15 -16z"/>
<path d="M1008 823 c-15 -17 -15 -20 1 -40 14 -17 21 -19 31 -10 10 10 11 7 5
-11 l-7 -24 21 21 c12 12 18 27 15 36 -6 14 -9 14 -26 -1 -17 -17 -20 -17 -35
-1 -16 16 -16 17 0 17 10 0 15 5 12 10 -3 6 -2 10 4 10 5 0 12 -5 14 -10 3 -6
4 -5 3 2 -4 19 -21 20 -38 1z"/>
<path d="M320 800 c0 -14 38 -41 44 -32 3 6 -1 13 -10 16 -8 3 -13 10 -10 14
3 5 -1 9 -9 9 -8 0 -15 -3 -15 -7z"/>
<path d="M281 756 c12 -10 60 -16 54 -6 -3 5 -18 10 -32 10 -15 0 -24 -2 -22
-4z"/>
<path d="M1066 744 c-23 -23 -20 -30 4 -9 11 10 20 20 20 22 0 7 -9 2 -24 -13z"/>
<path d="M615 714 c-82 -38 -65 -46 19 -9 l57 25 81 -20 c44 -12 82 -19 85
-16 3 3 -15 10 -38 16 -24 6 -64 17 -89 24 -43 12 -48 11 -115 -20z"/>
<path d="M286 725 c10 -8 26 -14 34 -14 9 0 4 6 -10 14 -33 19 -49 19 -24 0z"/>
<path d="M610 680 c-79 -36 -67 -39 19 -5 38 15 75 22 94 20 29 -4 29 -4 7 4
-39 14 -51 12 -120 -19z"/>
<path d="M1096 695 c-26 -11 -27 -12 -8 -17 12 -3 23 -1 26 6 3 7 8 6 15 -4
12 -17 15 -1 3 16 -5 8 -15 8 -36 -1z"/>
<path d="M266 691 c-11 -4 -15 -10 -10 -13 5 -2 20 1 34 8 26 14 8 18 -24 5z"/>
<path d="M1087 659 c7 -9 9 -20 5 -24 -4 -5 2 -5 13 -1 16 6 18 5 8 -5 -21
-21 -15 -28 11 -16 16 8 21 14 13 19 -9 6 -9 8 1 8 6 0 12 4 12 9 0 5 -9 7
-20 4 -11 -3 -28 1 -38 8 -15 12 -16 12 -5 -2z"/>
<path d="M655 648 c-10 -26 2 -55 17 -40 8 8 8 18 1 34 -10 21 -12 21 -18 6z"/>
<path d="M230 632 c0 -15 44 -23 55 -10 7 8 6 9 -2 4 -7 -4 -22 -2 -33 4 -11
6 -20 7 -20 2z"/>
<path d="M608 633 c-10 -2 -18 -9 -18 -14 0 -6 -4 -8 -9 -5 -10 7 -25 -24 -16
-33 3 -3 10 1 15 9 6 9 10 10 10 3 0 -8 7 -8 29 0 20 7 27 15 23 29 -2 10 -7
17 -11 17 -3 -1 -14 -3 -23 -6z"/>
<path d="M654 544 c3 -9 6 -21 6 -27 0 -8 3 -8 10 -1 12 12 3 44 -12 44 -6 0
-7 -7 -4 -16z"/>
<path d="M603 543 c-7 -3 -12 -14 -12 -26 1 -19 2 -20 6 -3 4 14 7 16 13 6 12
-19 41 -5 33 16 -6 16 -7 16 -13 -2 -6 -16 -8 -16 -11 -3 -2 9 -10 14 -16 12z"/>
<path d="M571 514 c0 -11 3 -14 6 -6 3 7 2 16 -1 19 -3 4 -6 -2 -5 -13z"/>
<path d="M320 499 c0 -17 28 -40 35 -29 4 6 11 7 17 4 6 -4 32 -9 57 -11 25
-2 50 -8 55 -13 5 -5 15 -6 22 -3 8 3 14 0 14 -6 0 -6 6 -8 13 -6 6 3 20 -8
29 -25 17 -30 12 -40 -10 -18 -9 9 -12 9 -12 -1 0 -11 -3 -11 -15 -1 -8 7 -15
8 -15 3 0 -6 -32 -9 -80 -7 -46 1 -80 -2 -80 -7 0 -23 42 -87 81 -124 24 -22
38 -33 33 -25 -24 36 -2 57 39 38 12 -6 17 -5 15 4 -2 9 7 12 27 9 17 -1 26 1
22 5 -11 11 76 28 283 57 91 12 170 26 176 30 16 10 25 48 11 45 -7 -1 -25 1
-41 5 -21 6 -34 3 -50 -10 -19 -17 -20 -17 -7 0 12 15 12 17 -3 11 -9 -3 -33
1 -54 9 -38 15 -112 14 -164 -3 -26 -8 -40 -1 -44 23 -1 4 -2 10 -3 15 -1 4
-5 1 -10 -6 -7 -11 -14 -11 -43 1 -19 8 -54 18 -78 22 -38 6 -42 5 -37 -9 4
-10 3 -15 -3 -11 -6 3 -10 12 -10 19 0 9 -21 15 -61 20 -86 9 -109 8 -109 -5z
m228 -37 c6 -18 -15 -14 -22 4 -4 10 -1 14 6 12 6 -2 14 -10 16 -16z m205 -46
c4 -9 -2 -12 -16 -11 -32 4 -34 6 -12 15 11 5 21 9 21 9 1 1 4 -5 7 -13z m131
8 c9 -3 13 -10 10 -15 -8 -14 -21 -11 -28 6 -6 17 -4 18 18 9z m-234 -14 c0
-5 -2 -10 -4 -10 -3 0 -8 5 -11 10 -3 6 -1 10 4 10 6 0 11 -4 11 -10z m200 -6
c0 -2 -12 -4 -26 -4 -14 0 -23 4 -20 9 6 8 46 4 46 -5z m17 -40 c-3 -3 -12 -4
-19 -1 -8 3 -5 6 6 6 11 1 17 -2 13 -5z m-244 -24 c-17 -7 -192 -24 -220 -22
-4 0 -9 5 -11 11 -3 10 56 16 188 18 46 1 59 -1 43 -7z"/>
<path d="M421 424 c0 -11 3 -14 6 -6 3 7 2 16 -1 19 -3 4 -6 -2 -5 -13z"/>
<path d="M263 403 c-7 -2 -13 -9 -13 -15 0 -7 4 -7 13 0 6 5 21 12 32 15 l20
5 -20 0 c-11 0 -26 -2 -32 -5z"/>
<path d="M1070 390 c0 -6 6 -10 14 -10 8 0 21 -3 30 -6 10 -4 16 -1 16 7 0 7
-3 10 -6 6 -3 -3 -17 -2 -30 3 -15 6 -24 6 -24 0z"/>
<path d="M280 372 l-25 -14 28 7 c19 4 26 2 22 -5 -3 -5 -13 -10 -21 -10 -16
0 -19 -26 -4 -35 6 -4 7 1 3 11 -5 14 -3 16 11 11 10 -4 15 -3 11 3 -3 6 -1
10 4 10 6 0 11 -5 11 -12 0 -6 3 -9 6 -6 3 4 0 17 -8 30 -12 22 -15 23 -38 10z"/>
<path d="M1085 344 c12 -12 13 -19 5 -24 -9 -5 -9 -9 -1 -14 11 -7 15 6 12 33
-2 7 2 10 8 6 6 -3 11 -1 11 4 0 6 -12 11 -26 11 -24 0 -24 -1 -9 -16z"/>
<path d="M1034 296 c-9 -10 -4 -13 25 -14 20 0 29 2 21 5 -8 3 -19 9 -25 13
-5 5 -15 2 -21 -4z"/>
<path d="M341 258 c-10 -26 -7 -33 8 -23 6 3 8 11 5 17 -4 6 0 14 7 19 11 7
11 9 1 9 -7 0 -16 -10 -21 -22z"/>
<path d="M1006 263 c-3 -4 -1 -12 5 -20 9 -10 7 -13 -8 -13 -10 0 -28 -6 -39
-14 -19 -15 -19 -15 3 -37 l22 -22 -6 21 c-3 12 -9 19 -14 16 -5 -3 -9 -1 -9
4 0 13 25 22 57 22 25 0 26 0 8 20 -22 24 -9 27 17 3 11 -9 18 -11 18 -5 0 7
-5 12 -11 12 -5 0 -8 4 -5 8 5 9 -29 14 -38 5z"/>
<path d="M380 229 c0 -5 -4 -8 -8 -5 -4 2 -8 -4 -8 -15 0 -24 0 -24 20 6 9 14
12 25 6 25 -5 0 -10 -5 -10 -11z"/>
<path d="M397 202 c-19 -20 -23 -37 -7 -27 10 6 33 45 27 45 -2 0 -11 -8 -20
-18z"/>
<path d="M421 193 c0 -5 4 -17 9 -28 8 -18 9 -17 9 8 1 15 -3 27 -9 27 -5 0
-10 -3 -9 -7z"/>
<path d="M1005 189 c-4 -6 -5 -12 -2 -15 2 -3 7 2 10 11 7 17 1 20 -8 4z"/>
<path d="M1044 158 l-19 -23 23 19 c12 11 22 21 22 23 0 8 -8 2 -26 -19z"/>
<path d="M340 145 c13 -14 26 -25 28 -25 3 0 -5 11 -18 25 -13 14 -26 25 -28
25 -3 0 5 -11 18 -25z"/>
<path d="M788 163 c7 -3 16 -2 19 1 4 3 -2 6 -13 5 -11 0 -14 -3 -6 -6z"/>
<path d="M935 163 c11 -3 24 -10 28 -17 6 -7 7 -6 4 4 -2 8 -14 16 -28 17 -19
1 -20 1 -4 -4z"/>
<path d="M472 148 c-7 -7 -12 -19 -11 -27 0 -11 4 -8 11 7 7 13 17 21 25 18 8
-3 11 -1 8 4 -8 13 -18 13 -33 -2z"/>
<path d="M512 116 c-9 -20 -8 -25 5 -30 9 -4 18 -4 21 -1 3 3 0 5 -7 5 -9 0
-11 8 -7 25 8 32 2 32 -12 1z"/>
<path d="M816 121 c-4 -5 -1 -20 4 -33 10 -22 10 -22 7 4 -2 15 0 25 4 22 5
-3 9 -12 9 -20 0 -18 32 -15 36 4 1 7 0 8 -3 2 -8 -16 -21 -12 -28 10 -7 21
-20 26 -29 11z"/>
<path d="M554 105 c-3 -8 -4 -20 -2 -27 3 -7 7 -1 10 15 6 29 1 36 -8 12z"/>
<path d="M781 105 c-1 -21 15 -53 22 -45 2 3 -2 19 -9 35 -10 23 -13 25 -13
10z"/>
<path d="M582 82 c-11 -25 -11 -25 4 -10 9 9 15 21 13 27 -2 6 -10 -2 -17 -17z"/>
<path d="M610 86 c0 -14 4 -27 8 -30 5 -3 6 8 4 25 -5 35 -12 38 -12 5z"/>
<path d="M646 102 c7 -4 14 -18 17 -32 4 -23 4 -23 6 4 l1 29 25 -23 c14 -13
25 -19 25 -13 0 6 -8 14 -17 17 -13 5 -14 9 -5 15 8 5 -2 8 -25 9 -21 1 -33
-2 -27 -6z"/>
</g>
</svg>
