<?xml version="1.0" standalone="no"?>
<!DOCTYPE svg PUBLIC "-//W3C//DTD SVG 20010904//EN"
 "http://www.w3.org/TR/2001/REC-SVG-20010904/DTD/svg10.dtd">
<svg version="1.0" xmlns="http://www.w3.org/2000/svg"
 width="1417.000000pt" height="832.000000pt" viewBox="0 0 1417.000000 832.000000"
 preserveAspectRatio="xMidYMid meet">

<g transform="translate(0.000000,832.000000) scale(0.100000,-0.100000)"
fill="#ffffff" stroke="none">
<path d="M10778 8292 c-15 -9 -34 -33 -43 -53 -14 -30 -21 -35 -41 -31 -21 4
-24 10 -24 48 0 24 -2 44 -5 44 -3 0 -29 -12 -58 -27 -45 -23 -72 -28 -214
-39 -166 -13 -265 -25 -623 -75 -246 -34 -271 -40 -520 -129 -672 -238 -1084
-411 -1400 -589 -219 -123 -235 -132 -345 -194 -49 -27 -119 -66 -155 -87 -36
-20 -85 -48 -110 -62 -137 -76 -1338 -753 -1359 -766 -15 -9 -69 -55 -122
-102 -268 -239 -473 -370 -579 -370 -33 0 -48 6 -71 29 -40 41 -37 72 15 130
l21 24 -22 -6 c-27 -6 -29 1 -8 29 13 20 13 21 -13 16 -24 -5 -25 -3 -14 11 8
9 15 43 17 77 3 34 11 75 20 92 20 41 20 41 -15 36 -17 -3 -33 -1 -36 3 -7 11
26 101 45 123 10 11 16 36 16 66 l0 47 -28 -23 c-34 -28 -93 -41 -118 -26 -12
8 -20 8 -24 2 -3 -6 -15 -10 -27 -10 -16 0 -19 5 -16 24 l5 23 -43 -18 c-47
-21 -74 -17 -74 13 0 25 13 34 -207 -142 -439 -353 -714 -538 -784 -528 -25 4
-36 -4 -81 -58 -100 -118 -341 -348 -386 -368 -54 -24 -76 -14 -80 37 l-3 36
-42 -18 c-86 -36 -137 -36 -137 2 0 18 -2 19 -17 5 -10 -9 -28 -19 -40 -22
-30 -10 -39 12 -48 117 l-7 87 -29 -22 c-98 -75 -111 -80 -117 -40 -2 12 -15
24 -33 31 -16 5 -29 17 -29 26 0 15 -4 14 -34 -4 -44 -28 -64 -26 -78 4 -28
62 71 239 226 402 22 24 38 45 35 47 -2 3 -29 -11 -59 -30 -136 -87 -311 -161
-351 -149 -19 7 -21 12 -16 60 l5 53 -150 -126 c-83 -70 -170 -143 -193 -162
-89 -74 -253 -217 -325 -285 -42 -38 -111 -103 -155 -144 -270 -250 -545 -512
-680 -646 -164 -163 -605 -684 -605 -714 0 -5 -25 -11 -55 -13 -85 -7 -103
-25 -161 -153 -14 -31 -18 -68 -19 -170 l-1 -131 -49 -74 c-64 -99 -105 -191
-105 -236 l0 -36 48 40 c34 29 52 54 65 92 12 33 23 50 31 47 8 -3 37 29 73
81 34 48 75 102 92 120 30 31 33 32 53 17 12 -8 48 -20 80 -26 l58 -12 0 -68
c0 -37 5 -71 10 -74 14 -9 12 -57 -4 -77 -16 -22 -25 -22 -47 -2 -17 15 -18
14 -13 -22 8 -61 34 -123 55 -135 19 -9 18 -12 -10 -52 -44 -64 -119 -145
-142 -152 -13 -4 -18 -12 -15 -23 3 -9 -1 -30 -9 -46 -8 -15 -15 -37 -15 -47
0 -10 -13 -25 -30 -34 -28 -15 -29 -17 -15 -38 19 -29 29 -169 17 -232 -11
-51 -3 -69 24 -58 17 6 36 -31 37 -73 1 -20 6 -34 13 -34 7 0 16 -9 19 -20 7
-22 32 -50 45 -50 4 0 15 17 23 39 11 25 27 43 49 54 18 9 44 27 57 41 14 14
29 26 35 26 6 0 31 32 56 70 50 78 76 92 66 35 -4 -19 -2 -42 5 -52 9 -15 4
-33 -23 -93 -43 -93 -40 -108 13 -75 58 37 88 33 51 -8 -16 -18 -14 -17 19 2
37 22 74 19 65 -4 -3 -8 18 -4 57 12 146 60 286 104 354 114 123 17 491 114
602 158 57 23 105 40 107 38 2 -1 -3 -16 -11 -31 -20 -38 -20 -39 17 -31 l33
6 -34 -29 -34 -29 32 -11 c17 -6 44 -20 60 -31 l28 -20 249 45 c137 24 259 46
271 49 21 5 23 2 23 -35 0 -22 5 -40 10 -40 7 0 7 -6 0 -19 -5 -11 -7 -26 -4
-35 3 -8 -13 -71 -35 -140 -23 -68 -46 -156 -53 -194 -11 -68 -11 -71 19 -138
22 -51 36 -70 52 -72 12 -2 28 -14 37 -27 8 -12 34 -30 58 -39 32 -12 55 -32
86 -73 23 -31 44 -63 47 -71 3 -8 26 -35 50 -61 24 -25 46 -55 49 -67 5 -21
10 -21 203 -20 163 1 201 -2 221 -15 22 -14 32 -12 169 39 80 30 178 60 216
68 39 8 75 21 81 29 7 10 22 12 47 8 51 -8 80 2 98 35 12 21 27 31 55 37 76
15 93 15 102 -1 7 -13 14 -11 53 10 24 13 100 45 169 71 173 65 249 108 257
145 6 34 17 45 57 54 15 4 53 31 83 61 32 33 63 55 76 55 34 1 234 168 333
280 49 55 96 103 106 105 32 11 144 120 208 204 64 84 67 86 217 170 141 80
155 91 198 149 37 51 57 69 103 89 31 15 93 58 138 97 44 39 110 97 146 129
191 166 307 256 438 338 485 302 682 433 764 506 57 51 353 248 494 329 105
61 199 133 277 214 28 28 84 72 125 97 91 56 368 197 465 238 57 23 88 46 170
125 55 53 139 129 188 169 l87 72 0 -30 c0 -24 4 -31 20 -31 13 0 17 5 14 14
-9 24 40 49 86 44 38 -3 43 -1 78 44 20 26 42 47 49 48 7 0 22 14 35 30 15 21
30 30 50 30 17 0 33 8 40 20 7 11 24 20 38 20 17 0 36 13 60 41 29 35 38 40
63 35 24 -5 31 -1 45 24 17 31 72 57 93 45 6 -4 35 -4 66 0 41 5 57 11 60 25
3 9 15 22 28 28 13 6 26 20 30 32 4 13 12 19 21 16 7 -3 23 8 35 26 19 25 24
28 33 16 20 -26 47 -30 53 -8 4 14 14 20 33 20 15 0 33 7 40 15 7 8 19 15 28
15 8 0 23 6 31 14 9 8 54 24 100 36 65 18 88 20 102 12 15 -10 21 -7 39 18 12
17 28 30 35 30 8 0 17 9 20 20 9 27 22 25 29 -4 5 -19 14 -24 53 -30 43 -6 50
-4 66 19 10 14 33 27 52 31 18 3 46 19 61 35 15 16 42 32 60 35 19 3 36 14 39
24 4 14 62 40 89 40 4 0 4 -16 0 -35 -5 -31 -4 -35 15 -35 14 0 26 10 34 28
22 50 44 55 58 12 11 -30 12 -30 85 -30 l73 0 26 44 c24 41 28 44 59 39 18 -3
42 0 54 6 11 6 46 14 77 17 54 7 58 6 80 -22 l23 -29 21 25 c14 17 23 21 28
14 6 -8 33 -9 93 -3 122 11 252 11 288 -2 21 -7 42 -7 70 0 24 7 202 12 456
14 382 3 416 2 421 -14 4 -13 14 -15 48 -12 31 4 46 1 56 -11 11 -13 34 -16
120 -16 58 0 144 -7 190 -15 47 -8 86 -13 88 -11 11 11 -247 66 -312 66 -56 0
-115 11 -115 21 0 13 107 41 163 42 97 2 182 -6 207 -18 14 -7 60 -18 103 -25
57 -10 80 -18 88 -31 7 -13 21 -19 45 -19 19 0 92 -13 161 -30 146 -35 133
-33 133 -17 0 6 -14 13 -30 14 -17 1 -40 9 -52 18 -13 8 -35 15 -50 15 -15 0
-42 9 -60 20 -18 11 -39 20 -47 20 -8 0 -25 10 -37 21 -14 13 -41 23 -68 26
-25 3 -46 10 -46 14 0 5 -7 9 -15 9 -8 0 -15 5 -15 10 0 6 -13 10 -28 10 -38
0 -122 29 -147 50 -14 12 -46 20 -105 24 -46 4 -87 10 -90 15 -17 25 -78 41
-157 41 -68 0 -92 4 -126 23 -43 23 -81 26 -294 29 -90 1 -92 1 -103 28 -11
27 -12 28 -128 32 -112 4 -118 4 -135 -18 -16 -21 -25 -23 -122 -23 -94 0
-106 2 -115 20 -9 16 -22 19 -78 20 -37 1 -78 4 -92 8 -25 8 -25 8 12 30 20
12 44 33 52 47 20 29 41 30 81 4 26 -17 47 -20 148 -20 110 0 117 1 117 20 0
23 18 27 26 6 8 -20 47 -28 146 -27 94 1 143 -11 135 -33 -4 -10 26 -14 151
-19 131 -5 168 -10 222 -30 64 -24 220 -42 333 -39 40 2 47 -1 47 -18 0 -25
55 -36 113 -22 39 10 56 7 247 -55 113 -36 208 -67 212 -69 4 -3 15 9 24 26
11 17 27 30 39 31 19 0 -44 34 -205 109 -41 19 -76 35 -78 36 -2 1 1 11 7 22
9 17 5 22 -29 37 -22 10 -40 20 -40 22 0 2 9 14 20 26 19 20 20 22 3 29 -10 3
-30 7 -45 7 -21 1 -28 6 -28 20 0 14 -11 23 -37 32 -32 10 -35 13 -19 24 15
11 15 13 0 19 -8 3 -41 6 -71 6 -54 0 -55 1 -49 25 6 24 4 25 -39 25 -50 0
-85 14 -85 33 0 7 14 24 30 39 49 43 41 56 -32 47 -35 -4 -64 -6 -66 -5 -1 2
2 15 7 29 6 15 28 35 51 47 22 11 40 25 40 30 0 14 -5 13 -60 -15 -39 -20 -64
-25 -120 -25 -66 0 -71 2 -80 25 -8 21 -16 25 -54 25 -24 0 -58 3 -75 6 -39 8
-41 37 -4 71 35 33 19 43 -69 43 -54 0 -68 3 -68 15 0 10 -10 15 -26 15 -22 0
-25 2 -14 15 11 13 1 15 -83 15 -85 0 -96 2 -102 19 -6 21 -33 31 -83 31 -33
0 -33 0 -18 28 9 18 27 32 48 38 18 5 34 17 36 27 3 15 -8 17 -102 17 -58 0
-106 3 -106 8 0 4 9 18 19 32 18 22 18 25 3 37 -15 11 -11 12 23 8 22 -2 69
-7 105 -10 36 -4 68 -12 72 -18 5 -8 18 -1 41 21 37 36 47 39 47 17 0 -9 12
-18 30 -21 17 -4 30 -10 30 -15 0 -5 7 -6 17 -2 13 5 15 2 11 -15 -6 -21 -3
-22 52 -22 31 0 78 -3 104 -6 41 -6 46 -9 46 -33 0 -15 8 -31 20 -39 14 -8 20
-23 20 -46 0 -28 4 -34 25 -38 31 -6 28 -10 50 80 l17 73 22 -20 c12 -11 36
-26 54 -32 20 -7 32 -18 32 -30 0 -13 10 -20 35 -25 30 -5 35 -9 29 -28 -3
-11 -17 -30 -30 -41 -28 -24 -30 -31 -9 -39 11 -4 33 13 67 49 47 50 55 55 94
55 43 0 43 0 38 -30 -6 -29 -5 -30 30 -30 32 0 36 -3 36 -25 l0 -24 143 -3
c125 -3 142 -5 139 -19 -2 -14 10 -18 59 -24 61 -7 61 -7 55 -36 -5 -29 -5
-29 44 -29 39 0 50 -4 55 -19 6 -20 133 -86 144 -75 9 9 -54 119 -68 119 -7 0
-24 15 -39 32 -24 29 -36 34 -104 44 -50 7 -78 16 -78 24 0 7 -13 15 -30 18
-21 5 -31 14 -36 32 -5 21 -12 25 -40 25 -19 0 -34 4 -34 9 0 5 -14 23 -31 40
-25 25 -39 31 -75 31 -30 0 -44 4 -44 13 0 12 -22 21 -98 43 -7 2 -11 8 -8 12
3 5 -26 16 -63 26 -53 14 -71 23 -80 42 -8 18 -19 24 -43 25 -18 0 -42 4 -53
8 -19 7 -19 8 0 18 16 9 10 13 -38 27 -33 10 -62 25 -71 38 -11 16 -30 24 -63
28 -43 5 -48 8 -46 28 2 12 -4 25 -11 28 -11 4 -13 12 -6 30 9 23 8 24 -40 24
-37 0 -61 7 -88 24 -32 22 -53 26 -160 32 -102 6 -122 9 -120 22 4 21 -34 30
-166 38 l-108 6 6 30 6 29 -126 -7 c-123 -7 -126 -7 -120 13 6 19 -1 21 -143
33 -136 11 -152 14 -172 36 l-22 24 -521 1 c-287 0 -516 3 -509 5 36 15 485
84 577 89 61 4 114 9 119 12 4 2 40 -3 78 -12 38 -10 72 -15 75 -13 2 3 7 35
11 71 l6 65 -63 4 c-52 2 -73 -2 -119 -24 -31 -14 -93 -33 -138 -41 -74 -14
-96 -14 -225 0 -133 14 -145 17 -173 44 -35 33 -40 33 -77 11z m-387 -134 c-7
-18 -22 -28 -55 -38 -51 -14 -61 -11 -52 17 6 18 108 65 114 53 1 -4 -2 -18
-7 -32z m-467 -14 c21 -8 20 -16 -5 -45 -12 -13 -32 -37 -46 -53 -21 -26 -26
-27 -39 -14 -13 13 -10 21 27 66 24 29 44 52 45 52 1 0 9 -3 18 -6z m720 -46
c-15 -27 -38 -48 -51 -48 -23 0 -14 17 20 38 39 25 40 25 31 10z m1146 -527
c0 -5 -24 -22 -54 -37 -46 -23 -57 -25 -70 -15 -25 21 -20 27 37 44 61 18 87
20 87 8z m1234 -527 c10 -27 7 -33 -29 -48 -31 -13 -44 -13 -111 -1 -42 8 -78
15 -82 15 -3 0 -2 3 1 7 6 5 75 19 208 42 4 1 10 -6 13 -15z m226 -119 c10
-13 9 -15 -9 -15 -12 0 -21 6 -21 15 0 8 4 15 9 15 5 0 14 -7 21 -15z m346
-254 c-4 -5 -13 -8 -22 -4 -11 4 -12 8 -3 20 14 16 36 2 25 -16z m-1985 -1
c46 0 59 -3 59 -15 0 -22 -32 -31 -127 -40 l-83 -7 0 37 0 38 46 -7 c26 -3 73
-6 105 -6z m499 -189 c0 -27 -3 -29 -62 -38 -65 -11 -88 -5 -88 23 0 15 78 42
123 43 23 1 27 -3 27 -28z m-606 -37 c4 -9 5 -18 3 -20 -1 -2 -66 -17 -142
-34 -77 -17 -157 -35 -178 -39 -20 -5 -39 -6 -42 -1 -2 4 9 28 25 53 l29 46
73 4 c195 9 226 8 232 -9z m1031 -34 c4 -6 -30 -11 -94 -12 -56 -1 -111 -2
-123 -2 -12 -1 -23 5 -25 12 -6 15 232 18 242 2z m266 -37 c26 -5 29 -8 15
-13 -24 -8 -76 0 -76 11 0 11 16 11 61 2z m-2926 -91 c1 -1 23 7 49 19 26 11
50 19 52 16 3 -3 -29 -33 -71 -67 -42 -34 -79 -59 -82 -56 -3 3 0 12 7 21 16
19 3 19 -30 0 -29 -17 -50 -19 -50 -6 0 5 23 35 52 66 51 56 52 57 62 34 5
-13 11 -25 11 -27z m611 5 c-3 -15 -20 -30 -46 -42 -44 -20 -45 -20 -54 12 -6
19 0 24 46 41 29 11 55 18 57 16 2 -1 1 -14 -3 -27z m-432 -104 c-10 -56 -31
-81 -77 -95 -39 -12 -39 -12 -18 -26 25 -17 27 -35 5 -56 -24 -24 -54 -20 -54
7 -1 18 -5 15 -25 -18 -14 -22 -32 -46 -42 -52 -18 -14 -83 -18 -83 -5 0 17
33 53 63 69 28 15 29 18 12 21 -29 6 -45 22 -46 46 0 18 -2 17 -10 -6 -6 -15
-19 -30 -30 -33 -11 -4 -46 -34 -78 -67 -54 -54 -67 -62 -140 -83 -93 -27
-133 -61 -124 -106 8 -42 -68 -98 -267 -195 -96 -47 -188 -93 -205 -101 -43
-23 -76 -55 -71 -69 3 -8 -10 -18 -32 -25 -50 -16 -136 -72 -199 -129 -35 -32
-67 -51 -100 -60 -26 -6 -56 -14 -65 -17 -10 -2 -18 0 -18 6 0 5 8 16 18 23 9
7 24 22 32 32 14 18 14 19 -7 8 -27 -15 -108 -16 -134 -2 -29 16 -23 34 18 61
21 13 48 39 60 58 12 18 50 50 84 70 34 20 85 57 115 83 61 53 214 150 277
175 53 21 184 94 250 138 28 19 102 53 166 76 64 24 133 53 154 66 21 13 77
41 125 62 49 22 144 67 213 102 78 40 142 65 174 70 28 3 54 7 58 8 4 0 5 -16
1 -36z"/>
<path d="M10403 5642 l-83 -47 0 -548 c0 -429 3 -548 13 -551 6 -3 47 -7 90
-10 l77 -6 0 605 c0 333 -3 605 -7 604 -5 0 -45 -21 -90 -47z"/>
<path d="M9933 5462 l-83 -36 0 -509 0 -509 23 5 c12 3 52 11 90 18 l67 12 0
529 c0 290 -3 528 -7 527 -5 -1 -45 -17 -90 -37z"/>
<path d="M9488 5233 l-88 -55 0 -455 0 -455 23 5 c12 3 51 11 85 18 35 6 66
17 68 23 2 6 3 228 2 493 l-3 482 -87 -56z"/>
<path d="M9003 4973 l-73 -25 0 -444 0 -444 92 46 91 46 -6 271 c-4 148 -7
339 -7 424 0 116 -3 153 -12 152 -7 0 -46 -12 -85 -26z"/>
<path d="M8558 4701 c-43 -27 -85 -54 -94 -62 -14 -11 -15 -58 -12 -421 2
-224 5 -408 7 -408 2 0 43 21 92 48 l89 47 0 423 c0 232 -1 422 -2 422 -2 -1
-38 -23 -80 -49z"/>
<path d="M8068 4404 l-88 -76 0 -335 0 -335 30 7 c17 4 58 14 93 23 l62 17 2
245 c2 135 0 309 -5 388 l-7 142 -87 -76z"/>
<path d="M11050 4353 c-27 -13 -69 -17 -185 -19 -488 -7 -1242 -173 -1785
-392 -131 -53 -305 -134 -312 -146 -4 -6 -8 -7 -8 -3 0 13 -171 -84 -203 -116
-31 -31 -158 -84 -359 -152 -103 -34 -195 -68 -204 -75 -8 -8 -22 -27 -31 -44
-9 -17 -26 -38 -38 -48 -27 -21 -125 -207 -125 -237 0 -24 25 -40 53 -33 19 5
20 2 14 -78 -4 -48 -13 -93 -22 -107 -20 -31 -12 -43 30 -43 19 0 35 -6 38
-14 11 -28 82 -38 309 -43 125 -3 227 -8 226 -12 -7 -56 35 -66 267 -62 146 2
224 8 335 27 80 13 157 24 172 24 15 0 53 7 85 16 70 20 89 22 222 23 91 1
102 3 91 16 -18 22 -152 20 -243 -4 -83 -22 -228 -33 -248 -20 -12 8 -11 12 4
23 15 12 16 17 6 34 -10 16 -9 25 9 53 53 86 102 104 139 49 23 -32 23 -35 7
-47 -10 -7 -14 -13 -8 -13 27 1 155 40 193 60 34 17 55 21 89 17 37 -4 55 1
102 27 55 29 59 30 77 14 18 -16 20 -16 49 1 16 10 52 21 80 25 104 13 168 36
204 71 20 19 44 35 54 35 15 0 18 -6 13 -33 -5 -32 -3 -34 31 -43 21 -6 36
-15 34 -22 -2 -10 15 -11 74 -6 92 8 97 -5 16 -47 -44 -23 -48 -28 -29 -33 12
-3 140 -6 285 -6 l262 0 0 -25 c0 -21 5 -25 33 -26 17 0 102 -6 189 -12 l156
-13 6 38 c7 43 5 43 154 31 69 -5 82 -9 82 -23 0 -14 15 -20 75 -29 42 -6 84
-11 95 -11 10 0 25 -9 33 -21 10 -13 23 -19 39 -17 15 2 30 -5 42 -20 16 -20
24 -22 65 -17 70 10 81 15 81 35 0 31 -27 48 -100 61 -72 13 -78 17 -58 37 9
9 -5 12 -64 12 -69 0 -77 2 -83 21 -7 22 -42 39 -80 39 -35 0 -74 20 -69 35 4
9 -11 15 -48 19 -116 15 -116 15 -98 60 9 25 50 50 100 60 14 3 30 15 35 27
16 35 55 58 119 71 33 6 68 20 78 30 25 25 95 23 180 -4 66 -21 69 -21 105 -4
36 17 37 19 16 27 -23 8 -39 48 -30 73 8 21 63 26 167 16 52 -5 100 -10 106
-10 7 0 9 10 7 24 -5 22 -1 26 33 32 49 8 83 26 108 53 19 21 19 22 -2 37 -28
19 -55 71 -48 90 6 16 79 19 139 5 30 -7 37 -6 37 6 0 38 -181 159 -279 189
-38 11 -59 26 -93 65 -82 97 -104 117 -198 188 -123 93 -305 183 -435 217
-130 34 -312 42 -365 17z m-980 -1141 c0 -5 -10 -18 -23 -30 -21 -19 -25 -20
-42 -8 -19 13 -18 15 15 29 42 18 50 20 50 9z m-566 -144 c-9 -31 -22 -38 -71
-38 -32 0 -43 4 -43 15 0 11 -11 15 -37 15 -36 1 -37 2 -19 15 14 10 45 15 99
15 77 0 78 0 71 -22z"/>
<path d="M7603 4099 l-83 -50 0 -1205 0 -1204 90 0 90 0 0 1255 c0 690 -3
1255 -7 1255 -5 0 -45 -23 -90 -51z"/>
<path d="M7136 3789 l-86 -72 0 -1038 0 -1039 90 0 90 0 0 1110 c0 611 -2
1110 -4 1110 -2 0 -43 -32 -90 -71z"/>
<path d="M6667 3412 l-87 -87 0 -843 0 -842 90 0 90 0 0 930 c0 512 -1 930 -3
930 -1 0 -42 -39 -90 -88z"/>
<path d="M6186 2968 l-86 -102 0 -613 0 -613 90 0 90 0 0 715 c0 393 -2 715
-4 715 -2 0 -43 -46 -90 -102z"/>
<path d="M10059 2967 c-25 -7 -59 -22 -75 -34 l-29 -23 50 7 c28 3 64 14 81
24 19 11 50 19 77 19 25 0 49 5 52 10 8 14 -97 11 -156 -3z"/>
<path d="M9906 2909 c3 -5 -15 -9 -40 -9 -25 0 -46 -5 -46 -10 0 -21 30 -21
81 -2 47 17 49 20 26 24 -15 3 -24 1 -21 -3z"/>
<path d="M10410 2809 c-25 -5 -55 -11 -67 -14 l-23 -5 0 -581 0 -580 88 3 87
3 3 593 2 592 -22 -1 c-13 -1 -43 -5 -68 -10z"/>
<path d="M9913 2733 l-63 -4 0 -544 0 -545 90 0 90 0 0 550 0 550 -27 -2 c-16
-1 -56 -3 -90 -5z"/>
<path d="M7980 2166 l0 -526 90 0 90 0 0 508 0 509 -67 12 c-38 7 -78 15 -90
18 l-23 5 0 -526z"/>
<path d="M9438 2673 l-38 -4 0 -515 0 -514 90 0 90 0 0 520 0 520 -52 -2 c-29
-1 -70 -3 -90 -5z"/>
<path d="M5733 2587 l-82 -62 -1 -437 0 -438 90 0 90 0 0 500 c0 275 -3 500
-7 499 -5 0 -45 -28 -90 -62z"/>
<path d="M8442 2143 l3 -508 88 -3 87 -3 0 500 0 499 -72 7 c-40 3 -81 9 -91
11 -16 5 -17 -22 -15 -503z"/>
<path d="M8923 2432 c4 -119 7 -349 7 -509 l0 -293 90 0 90 0 0 500 0 500 -22
4 c-13 3 -56 7 -97 10 l-74 5 6 -217z"/>
<path d="M5258 2204 l-88 -46 0 -259 0 -259 90 0 90 0 0 305 c0 168 -1 305 -2
305 -2 -1 -42 -21 -90 -46z"/>
<path d="M4808 1932 l-88 -47 0 -117 0 -118 90 0 90 0 0 165 c0 91 -1 165 -2
165 -2 -1 -42 -22 -90 -48z"/>
<path d="M2570 444 l0 -404 50 0 50 0 2 285 3 285 280 -294 c154 -162 283
-292 287 -290 5 3 8 180 8 395 l0 389 -50 0 -50 0 -2 -281 -3 -281 -179 189
c-99 103 -228 238 -288 300 l-108 111 0 -404z"/>
<path d="M10846 453 c-98 -214 -181 -394 -183 -401 -4 -10 7 -12 47 -10 l53 3
41 92 41 93 180 0 180 0 41 -93 41 -92 52 -3 c28 -2 51 -1 51 1 0 5 -359 790
-364 794 -1 2 -83 -171 -180 -384z m249 23 c36 -82 65 -150 65 -152 0 -2 -61
-4 -136 -4 -105 0 -135 3 -131 13 26 67 131 297 133 294 2 -2 33 -70 69 -151z"/>
<path d="M11450 443 l0 -403 45 0 45 0 0 288 0 287 113 -115 c62 -63 192 -198
290 -300 l176 -185 1 398 0 397 -45 0 -45 0 0 -282 0 -283 -113 115 c-62 63
-192 198 -290 300 l-176 185 -1 -402z"/>
<path d="M5502 811 c-91 -31 -142 -97 -142 -182 0 -89 54 -148 184 -201 49
-20 96 -49 123 -74 39 -37 43 -45 43 -90 0 -66 -28 -110 -85 -135 -61 -27
-108 -18 -158 31 -20 21 -40 52 -43 69 -5 23 -11 30 -23 27 -9 -2 -28 -7 -43
-10 -37 -8 -36 -36 2 -103 53 -93 159 -135 267 -107 138 36 213 169 169 302
-23 69 -83 120 -189 163 -106 42 -127 56 -143 96 -12 28 -12 38 0 66 34 82
150 101 215 36 29 -29 31 -29 60 -15 16 9 33 21 37 27 12 20 -67 89 -120 104
-64 19 -89 18 -154 -4z"/>
<path d="M8661 815 c-121 -34 -218 -115 -270 -225 -23 -49 -26 -67 -26 -165 0
-98 3 -116 27 -167 92 -198 330 -285 535 -197 269 115 315 495 82 679 -95 75
-238 106 -348 75z m226 -105 c62 -26 126 -91 156 -158 31 -70 30 -179 -5 -253
-75 -162 -255 -228 -412 -150 -70 34 -112 78 -148 151 -31 65 -32 186 0 255
39 84 120 153 207 176 49 13 146 3 202 -21z"/>
<path d="M12397 814 c-100 -32 -157 -127 -135 -228 13 -61 59 -101 191 -166
133 -65 162 -97 154 -169 -12 -107 -120 -166 -215 -117 -37 19 -72 69 -72 104
0 26 2 25 -55 11 -42 -11 -44 -13 -38 -38 37 -156 204 -230 351 -154 78 39
115 99 120 193 8 129 -39 185 -209 256 -140 58 -175 120 -106 189 57 57 129
59 192 4 l35 -31 35 22 c38 24 37 36 -7 76 -61 56 -157 75 -241 48z"/>
<path d="M1882 526 l3 -283 35 -68 c26 -51 47 -77 82 -101 122 -83 310 -54
390 61 50 72 58 132 58 417 l0 258 -49 0 -50 0 -3 -282 c-3 -270 -4 -285 -25
-324 -53 -99 -198 -121 -279 -43 -57 55 -64 97 -64 391 l0 258 -51 0 -51 0 4
-284z"/>
<path d="M3380 425 l0 -385 50 0 50 0 0 385 0 385 -50 0 -50 0 0 -385z"/>
<path d="M3561 763 c11 -27 84 -201 161 -388 77 -187 144 -344 148 -349 12
-12 21 9 173 379 75 182 143 347 152 368 l15 37 -52 0 -53 0 -109 -273 c-60
-149 -112 -276 -116 -280 -4 -4 -58 118 -120 272 l-113 281 -53 0 -53 0 20
-47z"/>
<path d="M4280 425 l0 -385 205 0 205 0 0 45 0 45 -160 0 -160 0 0 145 0 145
155 0 155 0 0 45 0 45 -155 0 -155 0 0 105 0 105 160 0 160 0 0 45 0 45 -205
0 -205 0 0 -385z"/>
<path d="M4810 425 l0 -385 50 0 50 0 0 165 c0 151 2 165 18 165 11 0 58 -60
131 -165 l114 -165 59 0 59 0 -39 53 c-118 160 -202 277 -202 280 0 2 17 9 39
15 56 17 90 48 117 106 41 87 27 181 -36 247 -48 51 -115 69 -252 69 l-108 0
0 -385z m259 277 c64 -30 90 -116 55 -183 -21 -41 -84 -69 -156 -69 l-58 0 0
141 0 141 63 -7 c34 -4 77 -14 96 -23z"/>
<path d="M5910 425 l0 -385 50 0 50 0 0 385 0 385 -50 0 -50 0 0 -385z"/>
<path d="M6080 765 l0 -45 90 0 90 0 0 -340 0 -340 50 0 50 0 0 340 0 340 90
0 90 0 0 45 0 45 -230 0 -230 0 0 -45z"/>
<path d="M6620 425 l0 -385 205 0 205 0 0 45 0 45 -160 0 -160 0 0 145 0 145
155 0 155 0 0 45 0 45 -155 0 -155 0 0 105 0 105 160 0 160 0 0 45 0 45 -205
0 -205 0 0 -385z"/>
<path d="M7440 425 l0 -385 104 0 c57 0 125 4 152 9 145 28 249 101 300 213
25 56 29 74 28 163 0 125 -23 193 -92 263 -85 87 -192 122 -374 122 l-118 0 0
-385z m328 265 c63 -27 133 -101 150 -158 7 -21 12 -73 12 -113 0 -173 -108
-273 -310 -286 l-90 -6 0 298 0 298 93 -5 c65 -4 107 -12 145 -28z"/>
<path d="M8150 758 c0 -29 3 -104 7 -165 l6 -113 32 0 32 0 6 113 c4 61 7 136
7 165 l0 52 -45 0 -45 0 0 -52z"/>
<path d="M9260 426 l0 -386 45 0 45 0 2 163 c4 214 5 214 153 2 l112 -160 56
-3 c32 -2 57 0 57 3 0 3 -52 76 -115 163 -63 86 -115 160 -115 163 0 3 17 11
38 17 21 7 55 28 75 49 102 101 75 283 -50 344 -41 21 -66 24 -175 27 l-128 4
0 -386z m258 273 c51 -22 77 -71 69 -132 -10 -74 -75 -117 -177 -117 l-60 0 0
133 c0 74 3 137 7 141 11 11 114 -4 161 -25z"/>
<path d="M9810 425 l0 -385 165 0 165 0 0 45 0 45 -115 0 -115 0 0 340 0 340
-50 0 -50 0 0 -385z"/>
<path d="M10210 425 l0 -385 205 0 205 0 0 45 0 45 -160 0 -160 0 0 145 0 145
155 0 155 0 0 45 0 45 -155 0 -155 0 0 105 0 105 160 0 160 0 0 45 0 45 -205
0 -205 0 0 -385z"/>
</g>
</svg>
